<?xml version="1.0" encoding="UTF-8"?>
<svg id="Layer_1" xmlns="http://www.w3.org/2000/svg" version="1.1" viewBox="0 0 1920 1080">
  <!-- Generator: Adobe Illustrator 29.1.0, SVG Export Plug-In . SVG Version: 2.1.0 Build 142)  -->
  <defs>
    <style>
      .st0 {
        fill: #fff;
      }
    </style>
  </defs>
  <g>
    <rect class="st0" x="662.64" y="30.99" width="674.57" height="1014.42"/>
    <path d="M1302.2,65.99v944.42h-604.57V65.99h604.57M1372.2-4.01h-744.57v1084.42h744.57V-4.01h0Z"/>
  </g>
  <path d="M865.36,324.54c12.87-8.4,25.83-16.81,40.02-22.83l-7.17,3.02c7.95-3.33,16.19-5.85,24.73-7.05l-7.98,1.07c6.64-.89,13.35-1,20-.15l-7.98-1.07c5.23.71,10.35,2.02,15.23,4.05l-7.17-3.02c4.2,1.79,8.1,4.08,11.73,6.85l-6.07-4.69c4.86,3.77,9.17,8.16,13.7,12.31,3.99,3.66,8.25,6.92,12.57,10.2,2.23,1.69,4.56,3.24,6.99,4.64,6.73,3.88,14.08,6.93,21.47,9.27s15.61,3.43,23.61,4.47c11.12,1.44,22.42,1.08,33.53-.28,8.02-.98,16.03-2.09,23.95-3.71,6.54-1.34,13.03-2.91,19.51-4.51,14.6-3.6,29.19-7.42,44.11-9.45l-7.98,1.07c8.6-1.15,17.26-1.67,25.92-1.21,4.13.16,7.98-.71,11.56-2.58,3.72-1.21,6.94-3.28,9.65-6.2,2.93-2.72,4.99-5.94,6.2-9.65,1.88-3.58,2.74-7.43,2.58-11.56l-1.07-7.98c-1.43-5.08-4-9.49-7.72-13.24l-6.07-4.69c-4.68-2.71-9.73-4.08-15.14-4.1-7.02-.37-14.06-.12-21.05.62-9.47,1-18.93,2.41-28.26,4.33-13.92,2.87-27.62,6.7-41.48,9.83-6.87,1.55-13.77,2.9-20.75,3.85l7.98-1.07c-12,1.59-24.19,2.05-36.21.44l7.98,1.07c-7.41-1.03-14.68-2.86-21.58-5.75l7.17,3.02c-5.44-2.32-10.56-5.28-15.24-8.9l6.07,4.69c-3.93-3.09-7.51-6.56-11.14-9.98-5.29-4.98-10.89-9.65-16.87-13.79s-12.51-6.75-19.06-9.13-13.65-3.24-20.68-4.13c-4.64-.59-9.32-.74-13.99-.45-7.17.44-14.4,1.43-21.42,3.02-4.76,1.08-9.42,2.58-13.97,4.35-7.05,2.73-14.04,5.73-20.76,9.21-10.31,5.32-20.04,11.67-29.75,18-3.5,1.89-6.3,4.46-8.42,7.73-2.65,2.9-4.44,6.3-5.37,10.2-1.25,3.99-1.43,7.98-.54,11.96.18,3.99,1.37,7.71,3.56,11.15,4.13,6.41,10.28,12.04,17.93,13.79l7.98,1.07c5.42-.02,10.46-1.38,15.14-4.1h0Z"/>
  <path d="M861.52,538.79c12.87-8.4,25.83-16.81,40.02-22.83l-7.17,3.02c7.95-3.33,16.19-5.85,24.73-7.05l-7.98,1.07c6.64-.89,13.35-1,20-.15l-7.98-1.07c5.23.71,10.35,2.02,15.23,4.05l-7.17-3.02c4.2,1.79,8.1,4.08,11.73,6.85l-6.07-4.69c4.86,3.77,9.17,8.16,13.7,12.31,3.99,3.66,8.25,6.92,12.57,10.2,2.23,1.69,4.56,3.24,6.99,4.64,6.73,3.88,14.08,6.93,21.47,9.27,7.7,2.44,15.61,3.43,23.61,4.47,11.12,1.44,22.42,1.08,33.53-.28,8.02-.98,16.03-2.09,23.95-3.71,6.54-1.34,13.03-2.91,19.51-4.51,14.6-3.6,29.19-7.42,44.11-9.45l-7.98,1.07c8.6-1.15,17.26-1.67,25.92-1.21,4.13.16,7.98-.71,11.56-2.58,3.72-1.21,6.94-3.28,9.65-6.2,2.93-2.72,4.99-5.94,6.2-9.65,1.88-3.58,2.74-7.43,2.58-11.56l-1.07-7.98c-1.43-5.08-4-9.49-7.72-13.24l-6.07-4.69c-4.68-2.71-9.73-4.08-15.14-4.1-7.02-.37-14.06-.12-21.05.62-9.47,1-18.93,2.41-28.26,4.33-13.92,2.87-27.62,6.7-41.48,9.83-6.87,1.55-13.77,2.9-20.75,3.85l7.98-1.07c-12,1.59-24.19,2.05-36.21.44l7.98,1.07c-7.41-1.03-14.68-2.86-21.58-5.75l7.17,3.02c-5.44-2.32-10.56-5.28-15.24-8.9l6.07,4.69c-3.93-3.09-7.51-6.56-11.14-9.98-5.29-4.98-10.89-9.65-16.87-13.79s-12.51-6.75-19.06-9.13-13.65-3.24-20.68-4.13c-4.64-.59-9.32-.74-13.99-.45-7.17.44-14.4,1.43-21.42,3.02-4.76,1.08-9.42,2.58-13.97,4.35-7.05,2.73-14.04,5.73-20.76,9.21-10.31,5.32-20.04,11.67-29.75,18-3.5,1.89-6.3,4.46-8.42,7.73-2.65,2.9-4.44,6.3-5.37,10.2-1.25,3.99-1.43,7.98-.54,11.96.18,3.99,1.37,7.71,3.56,11.15,4.13,6.41,10.28,12.04,17.93,13.79l7.98,1.07c5.42-.02,10.46-1.38,15.14-4.1h0Z"/>
  <path d="M864.87,753.21c12.87-8.4,25.83-16.81,40.02-22.83l-7.17,3.02c7.95-3.33,16.19-5.85,24.73-7.05l-7.98,1.07c6.64-.89,13.35-1,20-.15l-7.98-1.07c5.23.71,10.35,2.02,15.23,4.05l-7.17-3.02c4.2,1.79,8.1,4.08,11.73,6.85l-6.07-4.69c4.86,3.77,9.17,8.16,13.7,12.31,3.99,3.66,8.25,6.92,12.57,10.2,2.23,1.69,4.56,3.24,6.99,4.64,6.73,3.88,14.08,6.93,21.47,9.27s15.61,3.43,23.61,4.47c11.12,1.44,22.42,1.08,33.53-.28,8.02-.98,16.03-2.09,23.95-3.71,6.54-1.34,13.03-2.91,19.51-4.51,14.6-3.6,29.19-7.42,44.11-9.45l-7.98,1.07c8.6-1.15,17.26-1.67,25.92-1.21,4.13.16,7.98-.71,11.56-2.58,3.72-1.21,6.94-3.28,9.65-6.2,2.93-2.72,4.99-5.94,6.2-9.65,1.88-3.58,2.74-7.43,2.58-11.56l-1.07-7.98c-1.43-5.08-4-9.49-7.72-13.24l-6.07-4.69c-4.68-2.71-9.73-4.08-15.14-4.1-7.02-.37-14.06-.12-21.05.62-9.47,1-18.93,2.41-28.26,4.33-13.92,2.87-27.62,6.7-41.48,9.83-6.87,1.55-13.77,2.9-20.75,3.85l7.98-1.07c-12,1.59-24.19,2.05-36.21.44l7.98,1.07c-7.41-1.03-14.68-2.86-21.58-5.75l7.17,3.02c-5.44-2.32-10.56-5.28-15.24-8.9l6.07,4.69c-3.93-3.09-7.51-6.56-11.14-9.98-5.29-4.98-10.89-9.65-16.87-13.79s-12.51-6.75-19.06-9.13-13.65-3.24-20.68-4.13c-4.64-.59-9.32-.74-13.99-.45-7.17.44-14.4,1.43-21.42,3.02-4.76,1.08-9.42,2.58-13.97,4.35-7.05,2.73-14.04,5.73-20.76,9.21-10.31,5.32-20.04,11.67-29.75,18-3.5,1.89-6.3,4.46-8.42,7.73-2.65,2.9-4.44,6.3-5.37,10.2-1.25,3.99-1.43,7.98-.54,11.96.18,3.99,1.37,7.71,3.56,11.15,4.13,6.41,10.28,12.04,17.93,13.79l7.98,1.07c5.42-.02,10.46-1.38,15.14-4.1h0Z"/>
</svg>