<?xml version="1.0" encoding="UTF-8"?>
<svg id="Layer_1" xmlns="http://www.w3.org/2000/svg" version="1.1" viewBox="0 0 960 540">
  <!-- Generator: Adobe Illustrator 29.1.0, SVG Export Plug-In . SVG Version: 2.1.0 Build 142)  -->
  <path d="M171.99,299.72c-.51.11-1.01.2-1.52.29,1.46-.26-.19,0-.43.03-1.01.08-2.02.1-3.03.06-.5-.02-1-.07-1.5-.1-1.65-.08,1.22.27-.4-.04-1.16-.22-2.3-.45-3.43-.78-.81-.23-1.61-.5-2.4-.8-.19-.07-1.71-.76-.45-.17-.46-.22-.93-.43-1.39-.66-2.01-1.01-3.91-2.21-5.72-3.55,1.07.78-.31-.26-.43-.36-.4-.34-.8-.68-1.2-1.03-.66-.59-1.29-1.19-1.91-1.81-.74-.75-1.46-1.53-2.15-2.33-.34-.4-.68-.81-1.01-1.22.81,1.01-.51-.71-.65-.9-1.21-1.71-2.29-3.51-3.24-5.38-.45-.88-.87-1.78-1.26-2.69.44,1.02-.32-.82-.32-.82-.29-.76-.57-1.52-.83-2.28-1.57-4.61-2.61-9.4-3.25-14.22.16,1.19-.09-.81-.09-.84-.07-.61-.14-1.22-.2-1.83-.12-1.23-.22-2.46-.31-3.69-.18-2.47-.29-4.94-.37-7.41-.27-8.38-.36-16.8.2-25.17.12-1.73.26-3.47.44-5.2.1-.94.21-1.88.32-2.83.19-1.6-.2,1.31.03-.28.09-.62.18-1.25.28-1.87.58-3.67,1.34-7.31,2.35-10.89.49-1.74,1.04-3.46,1.67-5.15.26-.69.53-1.38.8-2.07-.58,1.48-.03.08.08-.18.24-.53.48-1.06.73-1.58.75-1.54,1.57-3.05,2.48-4.51.45-.72.91-1.42,1.4-2.11.2-.28.43-.56.62-.85.27-.35.17-.23-.3.38.17-.22.35-.43.52-.65,1.06-1.28,2.2-2.5,3.43-3.62.61-.56,1.26-1.09,1.9-1.62-1.25,1.01-.13.11.13-.07.46-.33.93-.64,1.4-.94,1.34-.85,2.74-1.56,4.17-2.25,1.35-.65-1.22.42.2-.08.47-.17.94-.36,1.41-.52,1.16-.39,2.34-.71,3.54-.97.51-.11,1.02-.2,1.53-.29,1.16-.2.18-.02-.05,0,1.03-.1,2.06-.19,3.1-.21s2.08,0,3.12.07c.52.03,1.04.09,1.56.13.7.08.69.08-.04-.02.35.05.69.11,1.03.17,1.9.34,3.78.81,5.62,1.4,1.01.33,2.01.7,3,1.09-1.24-.49.39.18.53.24.65.3,1.29.61,1.93.93,1.91.98,3.76,2.09,5.53,3.3.37.25.73.51,1.1.78.22.16,1.17.89.29.2.98.77,1.94,1.58,2.86,2.43,1.63,1.49,3.15,3.1,4.58,4.78.38.44.74.89,1.11,1.33,1.2,1.44-.64-.9.48.61.68.93,1.36,1.86,2,2.82,2.58,3.84,4.79,7.92,6.71,12.13.24.53.47,1.06.71,1.59.78,1.74-.42-1.06.3.71.44,1.08.87,2.17,1.29,3.26.9,2.37,1.73,4.77,2.51,7.18,3.14,9.66,5.65,19.54,7.83,29.45,1.14,5.16,2.16,10.35,3.08,15.56.46,2.6.89,5.21,1.29,7.83.18,1.2.36,2.4.54,3.6.08.55.16,1.09.23,1.64.06.44.12.87.18,1.31-.07-.5-.05-.38.05.37,2.72,21.21,3.71,42.61,2.82,63.97-.44,10.57-1.33,21.11-2.68,31.6,0-.08-.27,2.07-.13,1.03-.09.66-.18,1.31-.27,1.96-.18,1.31-.38,2.62-.57,3.92-.38,2.5-.78,4.99-1.22,7.48-.88,4.95-1.94,9.88-3.46,14.67-.3.95-.62,1.9-.96,2.84-.2.56-.43,1.12-.64,1.68-.68,1.81.47-.99-.32.77-1.06,2.37-2.25,4.67-3.63,6.86-.49.77-1.02,1.52-1.55,2.27-1,1.43.76-.84-.38.49-.35.41-.69.83-1.05,1.23-.72.81-1.47,1.59-2.26,2.34-.39.37-.79.74-1.2,1.1-.16.14-1.87,1.52-.88.77-1.56,1.19-3.23,2.24-4.98,3.15-.47.24-.95.47-1.43.69-1.54.73,1.1-.32-.52.2-1.17.38-2.32.78-3.53,1.06-.51.12-1.03.21-1.55.3-1.66.31,1.2,0-.49.04-1.06.03-2.11.11-3.18.06-.4-.02-.8-.06-1.19-.09-.64-.04-1.05.26.08.03-.77.16-2.15-.41-2.9-.62-.8-.22-1.58-.5-2.36-.78-1.34-.48,1.19.6-.07-.04-.36-.19-.74-.35-1.1-.54-.72-.38-1.42-.79-2.11-1.24-.23-.15-.45-.3-.68-.45-.22-.16-.45-.31-.66-.48-.52-.39-.44-.33.24.19-.61-.19-1.4-1.19-1.86-1.63-.61-.57-1.19-1.17-1.76-1.79s-1.11-1.28-1.65-1.94c1,1.22.07.08-.1-.16-.25-.35-.5-.71-.75-1.07-1-1.46-1.9-2.99-2.73-4.55-.42-.8-.83-1.61-1.21-2.43-.19-.41-.38-.83-.57-1.25-.27-.62-.25-.56.06.17-.12-.28-.23-.57-.35-.85-1.39-3.47-2.49-7.05-3.36-10.68-.4-1.67-.74-3.34-1.04-5.03-.16-.91-.3-1.82-.44-2.74-.25-1.55.15,1.34-.03-.22-.07-.6-.14-1.2-.21-1.8-.41-3.89-.61-7.81-.74-11.72-.25-8.07,0-16.15.73-24.19.18-2.02.4-4.03.65-6.04.06-.5.13-1,.19-1.51-.19,1.5.03-.19.06-.41.17-1.17.34-2.34.53-3.5.64-4,1.4-7.97,2.29-11.92,1.77-7.85,4.04-15.6,6.84-23.15.7-1.88,1.42-3.74,2.18-5.59.08-.19.73-1.73.17-.41.13-.31.26-.61.39-.92.46-1.07.93-2.13,1.42-3.18,1.65-3.61,3.43-7.15,5.35-10.63s4.11-7.11,6.39-10.53c1-1.5,2.02-2.98,3.07-4.43.57-.79,1.15-1.58,1.74-2.36.12-.16,1.13-1.47.25-.34.4-.51.8-1.03,1.21-1.54,4.88-6.1,10.3-11.78,16.21-16.89,1.48-1.28,3-2.52,4.54-3.73,1.24-.98-.64.47.15-.11.33-.24.65-.49.98-.74.92-.69,1.85-1.36,2.79-2.02,3.33-2.33,6.77-4.53,10.35-6.46,1.07-.58,2.16-1.1,3.25-1.63,1.74-.85-1,.34.81-.35.57-.22,1.13-.43,1.71-.63,1.13-.39,2.29-.72,3.46-.97.09-.02,2-.35.72-.18.57-.08,1.16-.12,1.74-.14s1.15-.02,1.73.01c.16,0,1.93.32.68.05.57.12,1.13.24,1.68.41.15.04,1.87.76.66.19.87.41,1.67.91,2.48,1.44,1.26.82-.8-.84.26.23.44.45.92.86,1.35,1.32.32.35.63.71.93,1.08-.14-.17-.69-.98-.07-.07.54.81,1.08,1.62,1.55,2.47s.93,1.75,1.34,2.65c.09.19.71,1.73.19.41.25.63.49,1.25.72,1.88,1.48,4.08,2.59,8.3,3.69,12.5,1.22,4.66,2.31,9.34,3.19,14.08.22,1.18.42,2.37.61,3.56.09.59.18,1.19.27,1.78.29,1.94-.12-1.17.1.78.28,2.36.52,4.73.65,7.1.26,4.67.16,9.34-.39,13.98.15-1.3-.09.58-.11.69-.09.57-.19,1.13-.29,1.7-.21,1.13-.46,2.25-.73,3.36-.6,2.42-1.37,4.79-2.3,7.11.38-.96-.09.2-.19.43-.2.44-.4.88-.62,1.32-.5,1.02-1.02,2.04-1.61,3.02-.28.47-.6.92-.89,1.38-.93,1.45.74-.74-.42.55-.87.97-1.74,1.9-2.74,2.74.96-.8-.4.25-.52.33-.44.28-.9.52-1.36.77.21-.11,1.09-.34.03-.02-.48.15-.95.27-1.44.38,1.43-.31-.02-.08-.35-.07l-.49-.03c.78.1.82.08.12-.07l-.49-.16c.62.28.63.26.02-.05-.57-.38-.58-.36-.05.06-.27-.22-.53-.45-.77-.69-.38-.36-.72-.76-1.06-1.15.85.98-.23-.34-.33-.48-.57-.84-1.1-1.71-1.62-2.58-1.32-2.22-2.56-4.48-3.71-6.79-.55-1.11-1.08-2.23-1.6-3.35-.26-.56-.51-1.13-.75-1.7.43.99-.36-.87-.35-.85-.93-2.3-1.77-4.62-2.54-6.98-1.52-4.71-2.73-9.53-3.54-14.42-.03-.21-.2-1.91-.08-.49-.05-.53-.1-1.06-.12-1.6s.02-1.06,0-1.59c-.05-1.54-.37.99.04-.46.14-.49.23-.98.43-1.45-.66,1.57.75-.76-.28.5.25-.31,1.37-1.04.22-.35.25-.17.52-.32.79-.46-.75.3-.8.34-.17.13.36-.08,1.06-.13-.25-.04.47-.03.93-.01,1.4-.04,1.46-.09-1.13-.35.32.01.49.12.97.22,1.45.36s.96.32,1.44.5c-1.29-.49.25.14.43.24,1.07.54,2.07,1.18,3.05,1.88.04.03,1.56,1.16.63.44.38.29.75.6,1.12.9.81.67,1.61,1.36,2.38,2.07,1.84,1.68,3.6,3.46,5.3,5.29,6.51,6.97,12.37,14.52,19.99,20.35,7.45,5.7,17.02,10.12,26.62,9.38,10.33-.8,18.22-6.92,24.48-14.78,6.83-8.56,13.16-17.54,19.7-26.33s13.03-17.54,19.55-26.3h-10.36c.2.43.38.85.58,1.28.66,1.44-.46-1.18.13.29.34.87.69,1.73,1.01,2.61.69,1.89,1.29,3.82,1.82,5.76.44,1.64.83,3.3,1.16,4.97.18.91.34,1.82.49,2.74.07.46.14.92.21,1.38-.25-1.68.04.39.08.71.41,3.7.55,7.42.44,11.14-.05,1.86-.17,3.72-.35,5.58-.09.93-.2,1.85-.32,2.78.17-1.39.07-.51.02-.21-.1.61-.19,1.23-.29,1.84-.65,3.84-1.56,7.64-2.72,11.35-.51,1.64-1.07,3.26-1.68,4.86-.33.87-.68,1.74-1.03,2.61.58-1.41-.03.05-.13.29-.25.57-.51,1.14-.77,1.7-1.58,3.38-3.38,6.66-5.39,9.81-1,1.57-2.06,3.1-3.17,4.6-.28.37-.56.74-.84,1.11.77-1.01.25-.32.08-.12-.69.84-1.37,1.68-2.07,2.5-2.73,3.16-5.71,6.11-8.93,8.78-.36.3-.72.59-1.08.88-.24.19-.48.39-.73.58.6-.46.64-.49.11-.09-.88.64-1.75,1.28-2.65,1.89-1.8,1.23-3.66,2.36-5.57,3.42l8.21,2.15c-1.06-1.73-2.05-3.5-2.94-5.31-.45-.91-.88-1.83-1.28-2.75.11.24.35.88-.1-.25-.23-.56-.45-1.13-.66-1.7-1.41-3.8-2.48-7.72-3.18-11.72-.1-.6-.2-1.2-.29-1.8.04.27.12,1.02-.02-.21-.11-1.01-.21-2.01-.29-3.02-.14-2.02-.19-4.05-.15-6.07.02-.95.08-1.89.14-2.84.11-1.68-.22.67.04-.29.12-.43.17-.88.29-1.32.09-.34.2-.69.33-1.02-.48,1.22.23-.28.34-.45-.14.22-.7.69.03.02.57-.53.97-.6.16-.2l.36-.22c.59-.3.49-.27-.31.09.01-.06.81-.24.78-.23,1.14-.4-.84-.15-.18.01.28.07.76,0,1.05,0,1.14-.03-.21-.09-.3-.08.34-.06.99.19,1.33.28.78.2,1.52.47,2.28.73,1.5.51-.69-.36.19.07.39.19.78.36,1.17.55.79.39,1.58.79,2.35,1.21,1.57.85,3.11,1.75,4.66,2.63,6.41,3.66,13.12,6.19,20.62,5.76,14.86-.85,27.97-10.45,37.25-21.51,4.78-5.69,8.64-11.86,11.96-18.49,3.07-6.12,5.88-12.35,8.93-18.48,3.36-6.75,6.99-13.42,11.58-19.42-.13.17-.74.92-.03.06.31-.38.61-.76.93-1.13.62-.75,1.26-1.48,1.92-2.19,1.2-1.31,2.46-2.56,3.78-3.74.72-.65,1.47-1.26,2.22-1.87-.17.13-.96.71-.06.05.39-.29.79-.57,1.19-.85,1.62-1.13,3.32-2.13,5.08-3.04l-9.03-5.18c-.66,18.99-1.45,37.97-1.98,56.96-.23,8.18.42,16.72,5.59,23.41,4.8,6.21,12.59,8.9,20.27,8.37,8.61-.59,16.74-3.9,24.33-7.84,2.79-1.45,3.85-5.58,2.15-8.21-1.83-2.84-5.22-3.7-8.21-2.15-1.34.69-2.68,1.36-4.05,1.99-.47.22-.94.42-1.4.63-.21.1-1.06.44,0,0-.8.33-1.6.65-2.42.95-3.04,1.13-6.15,1.98-9.34,2.53,1.51-.26-.97.08-1.31.1-.63.04-1.27.06-1.9.05-.78,0-1.54-.07-2.32-.14.2.02,1.32.25.24.02-.44-.1-.88-.18-1.32-.29-.36-.09-2.55-.93-1.1-.27-.55-.25-1.08-.51-1.6-.82-.3-.18-.63-.48-.96-.61-.73-.29.93.9-.07-.05-.59-.57-1.17-1.13-1.72-1.74.75.82,0,0-.17-.26-.24-.36-.47-.73-.68-1.11s-.91-2.04-.5-.93c-.62-1.67-1.02-3.38-1.32-5.13.21,1.21,0,.02-.02-.29-.05-.45-.08-.91-.11-1.36-.05-.73-.08-1.46-.1-2.2-.05-1.82-.01-3.65.05-5.48.28-8.75.61-17.51.91-26.26.35-9.96.69-19.93,1.04-29.89.17-4.76-5.16-7.19-9.03-5.18-12.86,6.67-21.55,18.7-28.22,31.21-6.66,12.5-11.51,26.12-19.95,37.59-.68.93-.2.27-.05.08-.33.43-.67.85-1.02,1.27-.57.7-1.16,1.39-1.75,2.08-1.19,1.36-2.43,2.68-3.72,3.95s-2.6,2.47-3.97,3.62c-.41.34-.82.68-1.24,1.01-.16.13-.91.68-.04.04-.84.63-1.69,1.24-2.56,1.83-1.42.96-2.89,1.85-4.4,2.66-.74.4-1.49.77-2.25,1.13-.3.14-.61.28-.91.41,1.3-.58-.36.13-.63.23-1.52.56-3.06,1.03-4.64,1.39-.7.16-1.4.28-2.11.4,1.56-.27,0,0-.29.02-.47.04-.94.07-1.41.09-.78.03-1.57.03-2.36,0-.35-.02-2.82-.32-1.23-.06-1.75-.29-3.47-.7-5.14-1.31-.31-.11-.62-.23-.93-.36,1.32.53-.23-.13-.41-.22-.67-.33-1.33-.69-1.99-1.05-1.62-.89-3.21-1.83-4.81-2.73-6.61-3.73-14.97-7.87-22.36-3.66-9.38,5.35-8.17,18.68-6.94,27.78,1.32,9.83,4.68,19.33,9.86,27.8,1.72,2.81,5.32,3.76,8.21,2.15,14.46-8.04,26.14-20.82,33.53-35.57s11.06-31.54,9.68-48.02c-.81-9.73-3.22-19.01-7.3-27.88-.86-1.87-3.23-2.97-5.18-2.97-2.3,0-3.88,1.22-5.18,2.97-7.07,9.51-14.14,19.03-21.22,28.54-3.54,4.76-7.07,9.51-10.61,14.27-1.64,2.21-3.3,4.42-4.95,6.63-.41.55.02-.02.09-.11-.17.22-.34.44-.52.66-.35.44-.7.87-1.05,1.3-.77.93-1.55,1.84-2.37,2.72s-1.65,1.72-2.53,2.52c-.4.37-.84.7-1.23,1.07-.48.46.06-.02.15-.09-.28.22-.58.43-.88.64-.89.62-1.81,1.19-2.77,1.69-.3.16-1.46.7-.54.31-.67.29-1.37.52-2.07.72-.52.15-1.04.28-1.57.4-.42.09-1.58.23-.52.13-1.15.11-2.3.17-3.46.13-.53-.02-1.07-.09-1.6-.11-.7-.02.16.03.26.05-.27-.04-.53-.08-.8-.13-1.25-.22-2.48-.53-3.69-.91-.53-.16-1.05-.34-1.56-.53-.25-.09-1.52-.6-1.09-.41s-.83-.39-1.06-.51c-.59-.29-1.17-.59-1.75-.9-2.15-1.17-4.22-2.51-6.16-4.01.74.57-.33-.28-.55-.46-.43-.36-.86-.72-1.27-1.09-.92-.81-1.81-1.66-2.69-2.52-1.79-1.76-3.5-3.6-5.18-5.46-6.67-7.39-13.09-15.57-21.68-20.86-4.44-2.74-9.93-4.38-15.13-3.21-6.23,1.39-9.62,7-10.2,12.98-.5,5.09.99,10.62,2.23,15.53,1.31,5.21,3.04,10.29,5.13,15.24s4.6,10.12,7.52,14.86c3.15,5.12,7.22,9.23,13.44,9.98,5.47.66,10.79-2.36,14.54-6.11s6.35-8.87,8.34-13.97c3.7-9.47,4.63-20,4-30.09s-2.81-20.89-5.52-31.05c-2.38-8.95-4.89-18.8-11.62-25.57-16.18-16.27-40.1.79-53.76,12.08s-24.01,24.53-32.34,39.39-14.54,31.67-18.26,48.59c-3.76,17.11-5.33,34.78-4.55,52.28.73,16.51,3.81,33.95,14.16,47.35,4.87,6.3,11.55,11.39,19.47,13.09,9.76,2.1,19.82-.54,27.72-6.55,18.07-13.74,21.31-37.26,24.08-58.3,2.93-22.28,3.83-44.83,2.7-67.27-1.15-22.85-4.34-45.65-9.56-67.93-4.75-20.25-10.43-41.45-23.64-57.99-11.92-14.93-33.15-25.13-52.18-18.68-8.14,2.76-14.78,7.89-19.91,14.71-4.68,6.22-7.66,13.76-9.6,21.25-4.35,16.79-4.3,34.77-3.4,51.97.59,11.18,2.25,22.22,6.71,32.55,3.86,8.94,10.42,16.68,18.62,21.93,8.09,5.17,17.73,7.27,27.16,5.29,3.08-.65,5.15-4.43,4.19-7.38-1.05-3.25-4.08-4.88-7.38-4.19h0Z"/>
  <path d="M550.09,219.8c14.42-14.85,26.42-32.15,35.1-50.94,2.55-5.53,4.86-11.17,6.88-16.91l-11.79-1.6c.97,20.94,1.46,41.91,1.46,62.87,0,20.87-.5,41.75-1.48,62.6-.55,11.77-1.26,23.53-2.12,35.28l11.79-1.6c-1.07-4.76-1.98-9.55-2.69-14.37-.09-.6-.17-1.21-.26-1.81-.04-.31-.18-1.17.03.24-.05-.3-.08-.6-.12-.91-.15-1.21-.3-2.42-.43-3.63-.26-2.42-.48-4.85-.66-7.28-.7-9.72-.7-19.49-.01-29.21.17-2.43.39-4.86.64-7.28.13-1.21.27-2.42.42-3.63.07-.53.14-1.06.2-1.59.11-.87-.16,1.11-.03.24.05-.38.11-.75.16-1.13.69-4.83,1.56-9.63,2.59-14.4,2.06-9.53,4.78-18.92,8.14-28.07.84-2.29,1.72-4.56,2.64-6.82.23-.56.45-1.13.7-1.69-.08.17-.51,1.18-.07.17.12-.28.24-.56.36-.84.48-1.12.98-2.23,1.48-3.34,2.01-4.44,4.18-8.8,6.51-13.08s4.81-8.48,7.44-12.58c1.32-2.05,2.67-4.08,4.07-6.08.7-1,1.4-1.99,2.12-2.98.31-.43.63-.86.94-1.29.18-.25.36-.49.54-.73.77-1.03.09.04-.01,0,.08.03,2.14-2.41,2.36-2.63.37-.36.76-.68,1.14-1.02.61-.55-.89.56-.19.16.3-.17.58-.39.89-.56-.01,0,.67-.41.73-.38s-1.23.35-.3.16c.13-.03.72-.15.77-.2-.14.14-1.46.01-.41.07.15,0,.73.06.81.02-.11.05-1.13-.28-.57-.05l.2.05c.5.17.51.16.04-.04-.47-.21-.46-.21,0,.02l.35.19s.65.36.66.44c0-.03-.89-.84-.28-.17.37.41.77.78,1.13,1.19.48.54-.08.32-.16-.23.02.13.29.4.37.51.36.51.7,1.04,1.03,1.57,1.35,2.19,2.6,4.44,3.79,6.71s2.33,4.64,3.38,7.01c.13.3.26.59.39.89.45,1.03.05.1-.03-.09.25.6.5,1.2.74,1.8.48,1.2.95,2.42,1.39,3.64,1.78,4.88,3.25,9.87,4.39,14.93.57,2.53,1.07,5.08,1.48,7.65.1.64.2,1.28.29,1.92.05.32.1.64.14.96-.02-.2-.16-1.29-.03-.15.15,1.29.3,2.58.42,3.87.48,5.17.63,10.37.43,15.56-.05,1.3-.12,2.59-.21,3.89-.04.54-.08,1.09-.13,1.63-.02.23-.05.47-.07.7-.09.99-.06.09.06-.35-.5,1.9-.69,3.85-1.29,5.73-.15.47-.31.93-.48,1.39-.06.17-.26.53-.26.68,0-.1.62-1.35.18-.43-.41.85-.82,1.69-1.32,2.5-.21.34-.65.77-.76,1.14.03-.09.96-1.13.32-.42-.15.16-.29.34-.43.5-.26.28-.52.55-.8.81-.16.14-.33.28-.48.42-.51.49,1.18-.78.33-.27-.36.21-.72.42-1.09.64-.48.28-.59-.05.57-.22-.18.03-.43.16-.6.21-.36.11-.74.15-1.1.27-.69.24,1.35-.02.61-.09-.27-.03-.58.03-.85.03l4.24,1.76c-2.45-2.98-4.9-5.95-7.35-8.93-1.51-1.83-4.54-2.09-6.55-1.24s-3.81,3.11-3.69,5.48c1.08,20.65,6.54,40.89,16.01,59.28,2.25,4.38,4.71,8.68,7.48,12.76,3.1,4.58,7.57,8.98,13.59,8.46,5.67-.5,9.68-4.61,12.32-9.37s4.72-9.68,7.04-14.51c5.58-11.6,11.16-23.2,16.74-34.8l-6.78,2.76c13.14,3.72,26.28,7.45,39.42,11.17,3.31.94,6.62,1.87,9.92,2.81.55.16,1.11.31,1.66.49.25.08.5.16.75.25l.37.14c.49.19.49.19.02,0l-.35-.15c.24.11.47.23.69.35.14.08.53.39.65.4l-.31-.24c-.4-.33-.41-.32-.03,0,.34.37.35.35.02-.06-.3-.43-.32-.43-.04,0,.29.89-.05-.16-.12-.32.41.87.03.08-.01-.25.18,1.31.29-.73.05,0-.12.36-.22.77-.32,1.14-.07.27-.21,1.1.07-.09-.06.27-.29.62-.41.87-.39.78-.8,1.55-1.21,2.33-1.6,3.05-3.19,6.09-4.79,9.14-3.58,6.83-7.16,13.66-10.74,20.5-1.14,2.17-1.05,4.69.47,6.66s3.89,2.64,6.31,2.15c.63-.13,1.27-.23,1.9-.34,1.36-.23-1.45.13-.08.02.32-.03.63-.06.95-.09,1.37-.11,2.75-.14,4.13-.09.62.02,1.24.06,1.86.11.31.03.62.06.92.09,1.34.12-1.45-.25-.13-.02s2.66.48,3.98.83c1.19.32,2.37.69,3.53,1.12.23.09.46.17.69.26.56.22,1.1.78-.06-.04.57.41,1.4.63,2.03.94,2.36,1.17,4.62,2.54,6.76,4.09.26.19.51.38.76.57.69.51-1.17-.95-.16-.12.49.41.99.8,1.47,1.22,1.07.92,2.1,1.88,3.09,2.89.91.92,1.78,1.87,2.62,2.85.42.49.82,1,1.24,1.5.87,1.06-.8-1.09.01.02.23.31.46.63.69.94,1.6,2.22,3.03,4.55,4.28,6.98.33.64.64,1.28.95,1.93.14.29.27.59.41.89.1.23.31,1.26.16.36s.06.15.14.37c.14.36.28.73.42,1.09.25.67.48,1.35.7,2.03.86,2.66,1.47,5.37,1.92,8.13.11.65-.23.4-.06-.44-.06.31.1.84.13,1.16.06.64.12,1.29.15,1.93.08,1.42.1,2.84.05,4.26-.01.35-.3,3.9-.32,3.9-.03,0,.21-1.47.02-.2-.05.33-.1.66-.16.99-.13.79-.28,1.57-.45,2.35-.57,2.71-1.35,5.37-2.31,7.97-.23.62-.47,1.23-.71,1.84-.52,1.29.56-1.25,0,.02-.11.24-.21.48-.32.72-.6,1.32-1.24,2.61-1.93,3.88-1.35,2.5-2.86,4.9-4.51,7.21-.39.54-.79,1.07-1.18,1.6-.52.7.93-1.16.08-.11-.25.31-.5.62-.75.93-.93,1.14-1.89,2.24-2.89,3.32-1.91,2.07-3.94,4.04-6.07,5.9-.61.53-1.23,1.06-1.85,1.57-.21.17-.42.34-.63.51-.27.22-1.68,1.45-.38.32-1.16,1.01-2.52,1.88-3.79,2.75-2.64,1.81-5.38,3.47-8.2,4.98-1.44.77-2.9,1.5-4.38,2.2-.74.35-1.49.67-2.23,1.01-1.25.56.95-.38.12-.05-.44.18-.88.36-1.32.54-3.01,1.2-6.09,2.22-9.22,3.08l7.38,4.19c-1.08-2.93-2.25-6.3-2.42-9.46.08,1.55,0-.05-.03-.33-.03-.32-.06-.64-.09-.96-.07-.8-.12-1.61-.15-2.42-.06-1.62-.06-3.24.02-4.86s.23-3.26.41-4.89c.13-1.15,0-.08-.02.13.04-.49.15-.98.22-1.47.13-.82.28-1.63.44-2.45.64-3.29,1.48-6.53,2.46-9.74s2.12-6.42,3.35-9.57c.31-.79.62-1.57.93-2.35.13-.31.25-.62.38-.93.08-.18.73-1.74.17-.42.65-1.53,1.32-3.05,1.99-4.57,2.67-5.96,5.47-11.86,8.41-17.68,11.75-23.32,25.64-45.56,41.42-66.36.54-.71,1.09-1.43,1.63-2.14.19-.25.88-1.13.11-.14.3-.39.6-.77.9-1.16,1.1-1.41,2.22-2.82,3.34-4.22,2.35-2.93,4.73-5.83,7.16-8.69,4.74-5.61,9.63-11.09,14.65-16.45,2.15-2.29,2.44-6.24,0-8.49s-6.19-2.45-8.49,0c-18.42,19.65-35.04,41.04-49.54,63.74-7.2,11.28-13.88,22.89-20,34.79-6.25,12.16-12.31,24.65-16.75,37.6-5.09,14.86-7.68,31.56-2.1,46.67,1.12,3.04,4.03,5.11,7.38,4.19,23.87-6.57,46.75-23.07,56.77-46.22,5.16-11.93,6.95-24.89,3.71-37.59-3.03-11.87-10.01-23.09-19.45-30.93-5.44-4.52-11.54-8.1-18.34-10.15s-14.12-2.28-21.16-.87l6.78,8.81c3.41-6.5,6.82-13.01,10.22-19.51,1.68-3.21,3.36-6.42,5.05-9.63,1.83-3.5,3.94-7.16,3.69-11.25s-2.83-7.85-6.6-9.7c-3.1-1.52-6.48-2.3-9.78-3.24-7.06-2-14.12-4-21.19-6-7.96-2.25-15.91-4.51-23.87-6.76-2.38-.67-5.64.41-6.78,2.76-4.61,9.58-9.22,19.17-13.83,28.75-2.35,4.88-4.69,9.75-7.04,14.63-.98,2.04-1.9,4.13-3.01,6.1-.15.26-1.21,2.35-1.49,2.33-.05,0,.8-.93.34-.45-.18.18-.33.39-.51.57-.13.14-.26.27-.4.4-.16.15-1.01.86-.23.25.94-.72-.6.34-.59.31.02-.1,1.2-.33.63-.26-.15.02-.36.1-.5.16-.93.36.4-.18.54-.04-.05-.05-.47.02-.55.01-.78-.1,1.19.34.43.07-.22-.08-.96-.4-.21,0,.87.47-.46-.3-.67-.42-.69-.42.18-.2.26.21-.02-.09-.38-.34-.45-.41-.35-.34-.66-.7-.99-1.06-.1-.11-.6-.64-.06-.04.61.67-.16-.23-.28-.4-2.62-3.72-4.9-7.74-7.03-11.76-1.07-2.02-2.09-4.06-3.06-6.13-.48-1.03-.96-2.07-1.41-3.12-.23-.52-.46-1.05-.68-1.57.48,1.16-.16-.41-.33-.83-1.74-4.31-3.26-8.71-4.56-13.17-1.46-5.01-2.64-10.1-3.52-15.24-.22-1.29-.42-2.57-.61-3.87-.03-.24-.08-.48-.1-.73.11,1.39.03.2,0-.1-.08-.65-.16-1.29-.23-1.94-.3-2.67-.51-5.36-.65-8.04l-10.24,4.24c2.1,2.55,4.2,5.1,6.3,7.65,1.58,1.92,3.34,3.18,5.98,3.01,1.38-.08,2.83-.26,4.15-.72,4.88-1.69,8.59-5.47,10.84-10.06,2.26-4.61,3.39-9.5,3.83-14.6.49-5.65.52-11.36.18-17.02-.7-11.7-2.93-23.35-6.77-34.43-2-5.77-4.4-11.43-7.18-16.87-2.54-4.98-5.3-10.78-9.81-14.27-2.63-2.03-5.89-3.31-9.27-2.92-3.71.42-6.72,2.05-9.52,4.47-2.23,1.93-3.98,4.35-5.72,6.71-1.58,2.15-3.12,4.33-4.61,6.54-5.96,8.84-11.19,18.16-15.67,27.83-9.32,20.13-15.38,41.41-18.27,63.39-2.84,21.62-2.22,43.61,1.75,65.05.47,2.55,1,5.08,1.57,7.61.66,2.91,3.77,4.68,6.58,4.3,3.08-.41,4.98-2.88,5.2-5.89,1.53-20.91,2.58-41.85,3.13-62.81s.61-41.74.19-62.61c-.24-11.78-.63-23.56-1.18-35.32-.14-3-2.18-5.49-5.2-5.89s-5.58,1.45-6.58,4.3c-.82,2.33-1.68,4.64-2.6,6.93-.24.59-.48,1.18-.72,1.77-.18.43-.63,1.69-.23.55-.42,1.19-1.02,2.35-1.53,3.5-2.06,4.57-4.32,9.05-6.76,13.42s-4.98,8.52-7.73,12.61c-1.37,2.05-2.79,4.07-4.25,6.06-.71.96-1.42,1.92-2.14,2.87-.11.15-.74.95-.26.34.45-.57-.05.06-.12.15-.44.56-.89,1.12-1.33,1.68-3.54,4.41-7.29,8.64-11.22,12.69-2.19,2.25-2.41,6.27,0,8.49s6.15,2.41,8.49,0h0Z"/>
</svg>